<?xml version="1.0" encoding="UTF-8"?>
<svg id="Layer_2" data-name="Layer 2" xmlns="http://www.w3.org/2000/svg" viewBox="0 0 92.36 84.83">
  <defs>
    <style>
      .cls-1 {
        fill: #164750;
      }
    </style>
  </defs>
  <g id="Layer_1-2" data-name="Layer 1">
    <path class="cls-1" d="M46.18,60.77c10.12,0,18.35-8.23,18.35-18.35s-8.23-18.35-18.35-18.35-18.35,8.23-18.35,18.35,8.23,18.35,18.35,18.35ZM46.18,26.32c8.88,0,16.1,7.22,16.1,16.1s-7.22,16.1-16.1,16.1-16.1-7.22-16.1-16.1,7.22-16.1,16.1-16.1ZM40.95,38.31c0-2.5,1.76-4.59,4.11-5.11v-1.83c0-.62.5-1.13,1.13-1.13s1.13.5,1.13,1.13v1.83c1.53.33,2.83,1.33,3.56,2.77.28.56.05,1.23-.5,1.51-.56.28-1.23.05-1.51-.5-.51-1.02-1.53-1.65-2.67-1.65-1.64,0-2.98,1.34-2.98,2.98,0,1.77,1.72,2.72,3.19,3,3.01.57,5.02,2.66,5.02,5.21s-1.76,4.59-4.11,5.11v1.83c0,.62-.5,1.13-1.13,1.13s-1.13-.5-1.13-1.13v-1.83c-1.53-.33-2.83-1.33-3.56-2.77-.28-.56-.05-1.23.5-1.51.56-.28,1.23-.05,1.51.5.51,1.02,1.53,1.65,2.67,1.65,1.64,0,2.98-1.34,2.98-2.98,0-1.77-1.72-2.72-3.19-3-3-.56-5.02-2.65-5.02-5.21ZM81.11,64.79c-1.83-1.25-4.71-1.45-8.78-.64l-19.61,3.82c-1.55-2.88-5.5-5.1-9.74-5.1h-3.48c-3.3,0-4.63-.84-6.83-2.22-.54-.34-1.16-.73-1.85-1.13-5.33-3.1-9.38-2.87-15.51-2.52-.78.04-1.59.09-2.43.13v-.37c0-1.55-1.26-2.81-2.81-2.81H2.81c-1.55,0-2.81,1.26-2.81,2.81v20.93c0,1.55,1.26,2.81,2.81,2.81h7.24c1.49,0,2.71-1.17,2.8-2.65.78.12,1.51.24,2.3.43,2.16.51,4.77,1.96,7.29,3.36,1.22.68,2.48,1.38,3.67,1.96,1.72.84,3.42,1.23,5.33,1.23h12.77c1.8,0,3.24-.42,4.53-.88l31.39-11.09c2.25-.8,3.4-2.67,3-4.89-.25-1.36-.93-2.44-2.02-3.18h0ZM10.6,77.7c0,.31-.25.56-.56.56H2.81c-.31,0-.56-.25-.56-.56v-20.94c0-.31.25-.56.56-.56h7.24c.31,0,.56.25.56.56v20.94s0,0,0,0ZM79.37,70.76l-31.39,11.09c-1.27.45-2.4.75-3.78.75h-12.76c-1.58,0-2.92-.31-4.34-1-1.14-.56-2.32-1.21-3.57-1.91-2.66-1.47-5.4-3-7.87-3.59-.98-.23-1.85-.37-2.8-.51v-16.2c.89-.04,1.75-.09,2.56-.14,5.93-.34,9.51-.54,14.26,2.22.66.38,1.23.74,1.79,1.09,2.28,1.43,4.08,2.57,8.03,2.57h3.48c4.54,0,8.19,2.99,8.19,5.47,0,1.07-.87,1.93-1.93,1.93h-13.59c-.62,0-1.13.5-1.13,1.13s.5,1.13,1.13,1.13h13.58c2.31,0,4.19-1.88,4.19-4.19,0-.15-.01-.3-.02-.45l19.37-3.77c4.25-.85,6.19-.31,7.08.29.58.39.93.96,1.07,1.74.24,1.41-.71,2.05-1.55,2.36h0ZM89.55,4.33h-7.24c-1.49,0-2.71,1.17-2.8,2.65-.78-.12-1.51-.24-2.3-.43-2.16-.51-4.77-1.96-7.3-3.36-1.22-.68-2.48-1.38-3.67-1.96-1.72-.84-3.42-1.23-5.33-1.23h-12.76c-1.8,0-3.24.42-4.53.88L12.24,11.95c-2.25.79-3.4,2.67-3,4.89.25,1.38.93,2.46,2.02,3.21,1.83,1.25,4.71,1.45,8.78.64l19.61-3.82c1.55,2.88,5.5,5.1,9.74,5.1h3.48c3.3,0,4.63.84,6.83,2.22.54.34,1.16.73,1.85,1.13,3.76,2.18,6.88,2.71,10.55,2.71,1.53,0,3.16-.09,4.97-.19.78-.04,1.59-.09,2.43-.13v.37c0,1.55,1.26,2.81,2.81,2.81h7.24c1.55,0,2.81-1.26,2.81-2.81V7.14c.02-1.55-1.24-2.81-2.8-2.81h0ZM79.5,25.45c-.89.04-1.75.09-2.56.14-5.93.34-9.51.54-14.26-2.22-.66-.38-1.23-.74-1.79-1.09-2.28-1.43-4.08-2.57-8.03-2.57h-3.48c-4.54,0-8.19-2.99-8.19-5.47,0-1.07.87-1.93,1.93-1.93h13.58c.62,0,1.13-.5,1.13-1.13s-.5-1.13-1.13-1.13h-13.57c-2.31,0-4.19,1.87-4.19,4.18,0,.15.01.3.02.45l-19.37,3.77c-4.25.85-6.19.31-7.08-.29-.58-.39-.93-.96-1.07-1.74-.25-1.42.7-2.07,1.54-2.37L44.38,2.99c1.27-.45,2.4-.75,3.78-.75h12.77c1.58,0,2.92.31,4.34,1,1.14.56,2.32,1.21,3.57,1.91,2.66,1.47,5.4,3,7.87,3.59.98.23,1.85.37,2.8.51v16.2s-.01,0-.01,0ZM90.11,28.08c0,.31-.25.56-.56.56h-7.24c-.31,0-.56-.25-.56-.56V7.14c0-.31.25-.56.55-.56h7.24c.31,0,.56.25.56.56v20.94Z"/>
  </g>
</svg>