<?xml version="1.0" encoding="UTF-8"?>
<svg id="Layer_2" data-name="Layer 2" xmlns="http://www.w3.org/2000/svg" viewBox="0 0 53.83 42.91">
  <defs>
    <style>
      .cls-1 {
        fill: #164750;
      }
    </style>
  </defs>
  <g id="Layer_1-2" data-name="Layer 1">
    <path class="cls-1" d="M11.97,26.37l-4.51-1.41c-1.16-.36-2.41-.05-3.27.8l-3.23,3.23c-.7.7-1.04,1.66-.94,2.63.1.98.62,1.85,1.45,2.39l12.46,8.21c.7.46,1.51.69,2.3.69,1.09,0,2.16-.41,2.98-1.23L52.97,7.92c.55-.55.86-1.3.86-2.09s-.3-1.53-.86-2.09c-2.42-2.42-5.63-3.75-9.05-3.75s-6.64,1.34-9.05,3.75l-5.41,5.41c-.19.19-.45.27-.72.23l-19.62-3.41c-.99-.17-2.02.15-2.73.86l-3.48,3.48c-.73.73-1.05,1.77-.85,2.78.2,1.01.88,1.86,1.83,2.27l13.57,5.78-5.12,5.12c-.09.11-.23.14-.35.1h0ZM20.74,23.38c.8-.8,1.15-1.94.93-3.05-.21-1.11-.96-2.03-2-2.48l-13.17-5.62,2.34-2.34,19.21,3.34c1.52.26,3.06-.23,4.15-1.31l5.41-5.41c1.68-1.68,3.91-2.61,6.3-2.61,2.05,0,4.01.7,5.58,1.97L16.44,38.92c-.1.09-.26.11-.37.04l-11.8-7.77,2.39-2.39,4.13,1.3c1.52.48,3.16.07,4.3-1.05l5.65-5.66Z"/>
    <path class="cls-1" d="M38.37,10c-.77-.77-2-.77-2.77,0L15.46,30.15c-.77.77-.77,2,0,2.77.38.38.88.57,1.38.57s1-.19,1.38-.57l20.15-20.15c.76-.77.76-2,0-2.77h0Z"/>
  </g>
</svg>