<?xml version="1.0" encoding="UTF-8"?>
<svg id="Layer_2" data-name="Layer 2" xmlns="http://www.w3.org/2000/svg" viewBox="0 0 48.2 40.79">
  <defs>
    <style>
      .cls-1 {
        fill: none;
        fill-rule: evenodd;
        stroke: #164750;
        stroke-miterlimit: 10;
        stroke-width: .75px;
      }
    </style>
  </defs>
  <g id="Layer_1-2" data-name="Layer 1">
    <path class="cls-1" d="M43.3.38c-.94,0-1.7.76-1.7,1.7h0c0,.94.76,1.7,1.7,1.7.94,0,1.7-.76,1.7-1.7,0-.94-.76-1.7-1.7-1.7,0,0,0,0,0,0ZM38.06,2.52c-.94,0-1.7.76-1.7,1.7,0,.94.76,1.7,1.7,1.7.94,0,1.7-.76,1.7-1.7h0c0-.94-.76-1.7-1.7-1.7,0,0,0,0,0,0ZM.38,2.75v14.4h23.93V2.75H.38ZM1.48,3.86h3.75v1.22H1.48v-1.22ZM5.78,3.86h4.03v1.22h-4.03v-1.22ZM10.36,3.86h4.03v1.22h-4.03v-1.22ZM14.94,3.86h4.02v1.22h-4.02v-1.22ZM19.51,3.86h3.68v1.22h-3.68v-1.22ZM40.83,5.92c-.59,0-1.07.48-1.07,1.07,0,.59.48,1.07,1.07,1.07.59,0,1.07-.48,1.07-1.07,0-.59-.48-1.07-1.07-1.07,0,0,0,0,0,0ZM1.48,6.18h3.75v2.81H1.48v-2.81ZM5.78,6.18h4.03v2.81h-4.03v-2.81ZM10.36,6.18h4.03v2.81h-4.03v-2.81ZM14.94,6.18h4.02v2.81h-4.02v-2.81ZM19.51,6.18h3.68v2.81h-3.68v-2.81ZM37.94,9.45c-.61,0-1.17.08-1.62.23-.22.07-.42.16-.6.31s-.37.38-.37.7v7.29l-6.76,11.06c-.05.09-.07.19-.07.29h0v5.26c0,.27.16.43.27.51s.19.11.27.14c.18.07.37.11.61.15.48.09,1.15.16,1.96.22,1.63.12,3.86.2,6.32.2s4.69-.08,6.32-.2c.81-.06,1.48-.14,1.96-.22.24-.04.44-.09.61-.15.09-.03.17-.07.27-.14s.27-.24.27-.51v-5.24h0s0-.01,0-.01c0-.1-.03-.2-.08-.29l-6.76-11.06v-7.29c0-.32-.19-.56-.37-.7s-.38-.23-.6-.31c-.45-.15-1-.23-1.62-.23ZM1.48,9.54h3.75v3.08H1.48v-3.08ZM5.78,9.54h4.03v3.08h-4.03v-3.08ZM10.36,9.54h4.03v3.08h-4.03v-3.08ZM14.94,9.54h4.02v3.08h-4.02v-3.08ZM19.51,9.54h3.68v3.08h-3.68v-3.08ZM37.94,10.55c.38,0,.67.07.94.13-.28.06-.56.13-.94.13s-.67-.07-.94-.13c.28-.06.56-.13.94-.13ZM39.43,11.72v6.4h0s0,.01,0,.02c-.46.25-.98.38-1.49.38s-1.03-.13-1.49-.38c0,0,0-.02,0-.02h0v-6.4c.42.12.93.19,1.49.19s1.06-.07,1.49-.19h0ZM1.48,13.17h3.75v2.88H1.48v-2.88ZM5.78,13.17h4.03v2.88h-4.03v-2.88ZM10.36,13.17h4.03v2.88h-4.03v-2.88ZM14.94,13.17h4.02v2.88h-4.02v-2.88ZM19.51,13.17h3.68v2.88h-3.68v-2.88ZM36.23,18.65c.53.28,1.12.43,1.71.43s1.19-.15,1.71-.43l6.62,10.82v.51s-.06-.01-.1-.02c-.47-.08-1.12-.16-1.93-.22-1.62-.12-3.84-.2-6.3-.2s-4.68.08-6.3.2c-.81.06-1.46.14-1.93.22-.04,0-.06.01-.1.02v-.51l6.61-10.82ZM.38,20.86v14.4h23.93v-14.4H.38ZM1.48,21.97h21.72v12.19H1.48v-12.19ZM8.07,24.99v7.73h2.21v-7.73h-2.21ZM21.27,25.16l-2.6,1.68-.77,3.2h-1.72l-.3,1.24-3.01.9.16.53,3.31-.99.27-1.13h1.72l.82-3.41,2.42-1.56-.3-.46ZM5.45,27.2v5.52h2.21v-5.52h-2.21ZM2.83,29.41v3.31h2.21v-3.31h-2.21ZM37.94,30.09c2.45,0,4.66.08,6.26.2.77.06,1.38.13,1.81.2-.43.08-1.04.15-1.81.2-1.6.12-3.81.2-6.26.2s-4.66-.08-6.26-.2c-.77-.06-1.38-.13-1.81-.2.43-.08,1.04-.15,1.81-.2,1.6-.12,3.81-.2,6.26-.2ZM38.26,33.34h.05s-.06,0-.1,0h.04ZM12.34,39.05c-4.91,0-8.88.3-8.88.68h0c0,.38,3.98.68,8.88.68h0c4.91,0,8.88-.3,8.88-.68h0c0-.38-3.98-.68-8.88-.68h0ZM37.94,39.05c-4.91,0-8.88.3-8.88.68h0c0,.38,3.98.68,8.88.68h0c4.91,0,8.88-.3,8.88-.68h0c0-.38-3.98-.68-8.88-.68h0Z"/>
  </g>
</svg>