<?xml version="1.0" encoding="UTF-8"?>
<svg id="Layer_2" data-name="Layer 2" xmlns="http://www.w3.org/2000/svg" viewBox="0 0 45.57 43.75">
  <defs>
    <style>
      .cls-1 {
        fill: none;
        stroke: #164750;
        stroke-miterlimit: 10;
        stroke-width: .75px;
      }
    </style>
  </defs>
  <g id="Layer_1-2" data-name="Layer 1">
    <path class="cls-1" d="M43.27.38H2.31C1.24.38.38,1.24.38,2.31v31.27c0,1.06.87,1.93,1.93,1.93h15.4v3.03l-2.17,1.13c-.06.03-.13.07-.19.1-.61.3-1.43.72-1.43,1.72s.84,1.88,1.88,1.88h13.98c1.04,0,1.88-.84,1.88-1.88s-.83-1.42-1.43-1.72c-.06-.03-.13-.06-.19-.1l-2.17-1.13v-3.03h15.4c1.06,0,1.93-.87,1.93-1.93V2.31c0-1.06-.86-1.93-1.92-1.93ZM2.31,1.49h40.97c.45,0,.81.37.81.81v26.63H1.49V2.31c0-.45.37-.81.81-.81ZM27.06,39.38l2.47,1.29c.07.03.13.07.2.1.63.32.82.46.82.73,0,.42-.34.77-.77.77h-13.98c-.42,0-.77-.34-.77-.77,0-.27.19-.41.82-.73.07-.03.13-.07.2-.11l2.47-1.29c.18-.1.3-.29.3-.5v-3.38h7.93v3.38c0,.22.12.4.31.5ZM43.27,34.39H2.31c-.45,0-.81-.37-.81-.81v-3.52h42.6v3.52c0,.45-.37.81-.81.81ZM10.25,23.25c1.89,0,3.43-1.54,3.43-3.43s-1.54-3.43-3.43-3.43-3.43,1.54-3.43,3.43,1.54,3.43,3.43,3.43ZM10.25,17.51c1.28,0,2.32,1.04,2.32,2.32s-1.04,2.32-2.32,2.32-2.32-1.04-2.32-2.32c0-1.28,1.04-2.32,2.32-2.32ZM3.71,21.67h1.11c.08.24.18.47.29.69l-.78.78c-.2.2-.3.46-.3.73s.11.54.3.73l1.14,1.14c.2.2.46.3.73.3s.54-.11.73-.3l.78-.78c.22.11.46.21.69.29v1.11c0,.57.47,1.04,1.04,1.04h1.61c.57,0,1.04-.47,1.04-1.04v-1.11c.24-.08.47-.18.69-.29l.78.78c.2.2.46.3.73.3s.54-.11.73-.3l1.14-1.14c.4-.4.4-1.06,0-1.47l-.78-.78c.11-.22.21-.46.29-.69h1.11c.57,0,1.04-.47,1.04-1.04v-1.61c0-.57-.47-1.04-1.04-1.04h-1.11c-.08-.24-.18-.47-.29-.69l.78-.78c.2-.2.3-.46.3-.73s-.11-.54-.3-.73l-1.14-1.14c-.2-.2-.46-.3-.73-.3s-.54.11-.73.3l-.78.78c-.22-.11-.46-.21-.69-.29v-1.11c0-.57-.47-1.04-1.04-1.04h-1.61c-.57,0-1.04.47-1.04,1.04v1.11c-.24.08-.47.18-.69.29l-.78-.78c-.2-.2-.46-.3-.73-.3s-.54.11-.73.3l-1.14,1.14c-.2.2-.3.46-.3.73s.11.54.3.73l.78.78c-.11.22-.21.46-.29.69h-1.11c-.57,0-1.04.47-1.04,1.04v1.61c0,.57.46,1.04,1.03,1.04ZM3.79,19.1h1.08c.45,0,.85-.29.99-.71.07-.22.16-.43.26-.64.2-.4.13-.89-.19-1.2l-.77-.77,1.03-1.03.77.77c.32.32.8.39,1.2.19.21-.11.42-.19.64-.26.43-.14.71-.53.71-.99v-1.08h1.45v1.08c0,.45.29.85.71.99.22.07.43.16.64.26.4.2.89.13,1.2-.19l.77-.77,1.03,1.03-.77.77c-.32.32-.39.8-.19,1.2.11.21.19.42.26.64.14.43.53.71.99.71h1.08v1.45h-1.08c-.45,0-.85.29-.99.71-.07.22-.16.43-.26.64-.2.4-.13.89.19,1.2l.77.77-1.03,1.03-.77-.77c-.32-.32-.8-.39-1.2-.19-.21.11-.42.19-.64.26-.43.14-.71.53-.71.99v1.08h-1.45v-1.08c0-.45-.29-.85-.71-.99-.22-.07-.43-.16-.64-.26-.4-.2-.89-.13-1.2.19l-.77.77-1.03-1.03.77-.77c.32-.32.39-.8.19-1.2-.11-.21-.19-.42-.26-.64-.14-.43-.53-.71-.99-.71h-1.08v-1.45ZM19.32,11.63v12.3c0,.31.25.56.56.56h3.93c.31,0,.56-.25.56-.56v-12.3c0-.31-.25-.56-.56-.56h-3.93c-.31,0-.56.25-.56.56ZM20.44,12.19h2.82v11.19h-2.82v-11.19ZM25.74,24.49h3.93c.31,0,.56-.25.56-.56V7.59c0-.31-.25-.56-.56-.56h-3.93c-.31,0-.56.25-.56.56v16.35c0,.31.25.56.56.56ZM26.3,8.15h2.82v15.23h-2.82v-15.23ZM31.59,24.49h3.93c.31,0,.56-.25.56-.56v-8.86c0-.31-.25-.56-.56-.56h-3.93c-.31,0-.56.25-.56.56v8.86c0,.31.25.56.56.56ZM32.15,15.63h2.82v7.75h-2.82v-7.75ZM37.45,24.49h3.93c.31,0,.56-.25.56-.56v-12.71c0-.31-.25-.56-.56-.56h-3.93c-.31,0-.56.25-.56.56v12.7c0,.31.25.56.56.56ZM38.01,11.79h2.82v11.59h-2.82v-11.59ZM19.06,26.04h23.58c.31,0,.56.25.56.56s-.25.56-.56.56h-23.58c-.31,0-.56-.25-.56-.56s.25-.56.56-.56ZM6.11,4.17c0-.31.25-.56.56-.56h9.09c.31,0,.56.25.56.56s-.25.56-.56.56H6.67c-.31,0-.56-.25-.56-.56ZM4.03,4.56c-.11-.1-.16-.25-.16-.39,0-.04,0-.07,0-.11s.02-.07.03-.11c.01-.03.03-.07.05-.1.02-.03.04-.06.07-.09.02-.02.05-.05.09-.07.03-.02.06-.04.1-.05s.07-.02.11-.03c.07-.01.14-.01.22,0,.03,0,.07.02.11.03.03.01.07.03.1.05.03.02.06.04.09.07.02.02.05.05.07.09.02.03.04.06.05.1s.02.07.03.11c0,.03,0,.07,0,.11,0,.15-.06.29-.16.39-.11.11-.25.16-.39.16s-.3-.06-.4-.16ZM6.11,6.52c0-.31.25-.56.56-.56h12.49c.31,0,.56.25.56.56s-.25.56-.56.56H6.67c-.31,0-.56-.25-.56-.56ZM4.03,6.92c-.11-.11-.16-.25-.16-.39,0-.04,0-.07,0-.11,0-.03.02-.07.03-.11s.03-.07.05-.1c.02-.03.04-.06.07-.09.02-.02.05-.05.09-.07.03-.02.06-.04.1-.05s.07-.02.11-.03c.07-.01.14-.01.22,0,.03,0,.07.02.11.03.03.01.07.03.1.05.03.02.06.04.09.07.02.02.05.05.07.09.02.03.04.06.05.1.01.03.02.07.03.11,0,.03,0,.07,0,.11,0,.15-.06.29-.16.39-.02.02-.05.05-.09.07-.03.02-.06.04-.1.05s-.07.02-.11.03-.07,0-.11,0-.07,0-.11,0c-.04,0-.07-.02-.11-.03-.03-.01-.07-.03-.1-.05-.03-.02-.06-.04-.08-.07ZM6.11,8.88c0-.31.25-.56.56-.56h6.25c.31,0,.56.25.56.56s-.25.56-.56.56h-6.25c-.31,0-.56-.25-.56-.56ZM4.03,9.27c-.11-.1-.16-.25-.16-.39s.06-.29.16-.39c.1-.11.25-.16.39-.16s.29.06.39.16c.02.02.05.05.07.09.02.03.04.06.05.1.01.03.02.07.03.11,0,.03,0,.07,0,.11,0,.15-.06.29-.16.39s-.25.16-.39.16c-.04,0-.07,0-.11,0s-.07-.02-.11-.03c-.03-.01-.07-.03-.1-.05-.03-.02-.06-.05-.08-.07Z"/>
  </g>
</svg>