<?xml version="1.0" encoding="UTF-8"?>
<svg id="Layer_2" data-name="Layer 2" xmlns="http://www.w3.org/2000/svg" viewBox="0 0 66.01 63.48">
  <defs>
    <style>
      .cls-1 {
        fill: #164750;
        fill-rule: evenodd;
      }
    </style>
  </defs>
  <g id="Layer_1-2" data-name="Layer 1">
    <path class="cls-1" d="M38.36,49.96c-5.21,2.18-11.15,1.76-16.01-1.13-4.86-2.89-8.05-7.92-8.62-13.54h-2.79c-.24,0-.47-.06-.68-.18-.21-.12-.38-.29-.5-.5,0-.01-.02-.03-.02-.04l-4.29-7.44H.77c-.43,0-.77-.35-.77-.77s.35-.77.77-.77h4.78c.24,0,.48.06.68.18s.38.29.5.5l4.32,7.48h2.6v-.23c0-5.39,2.44-10.49,6.64-13.88,4.2-3.38,9.7-4.68,14.97-3.54s9.74,4.61,12.16,9.43h5.67V9.36c-1.49-.39-2.47-1.83-2.27-3.36.2-1.53,1.5-2.68,3.04-2.68s2.85,1.15,3.04,2.68c.2,1.53-.78,2.97-2.27,3.36v16.35c0,.36-.14.71-.4.96-.26.26-.6.4-.96.4h-5.17c.39,1,.69,2.04.88,3.1h5.64c.39-1.49,1.83-2.47,3.36-2.27,1.53.2,2.68,1.5,2.68,3.04s-1.15,2.85-2.68,3.05c-1.53.2-2.97-.78-3.36-2.27h-5.41c.1,1.02.12,2.04.04,3.05l2.78.05c.43,0,.83.21,1.08.56l5.53,7.51h4.33l-1.64-1.25c-.34-.26-.41-.75-.15-1.08.26-.34.75-.41,1.08-.15l3.44,2.64c.16.12.27.31.3.51.03.2-.03.41-.15.57-.04.06-.1.11-.16.16l-3.43,2.64c-.34.24-.81.18-1.06-.16-.26-.33-.2-.81.13-1.07l1.64-1.25h-4.42c-.44,0-.84-.2-1.1-.56l-5.53-7.51-2.84-.05c-.22,1.4-.61,2.78-1.16,4.09l.37.37c.78.78.37,2.2-.66,3.74l2.42,2.42.51-.51h0c.3-.29.7-.46,1.12-.46s.82.17,1.12.46l6.92,6.92c2.3,2.33,2.29,6.08-.02,8.4-2.32,2.32-6.07,2.33-8.4.03l-6.92-6.92c-.3-.3-.46-.7-.46-1.12s.17-.82.46-1.12l.51-.51-2.42-2.42c-1.54,1.02-2.97,1.43-3.74.66l-.37-.37ZM58.68,29.87c-.51-.51-1.32-.59-1.93-.19-.6.41-.84,1.18-.56,1.85.28.67.99,1.05,1.71.91.71-.14,1.23-.77,1.23-1.5,0-.41-.16-.79-.45-1.08h0ZM54.94,5.31c-.51-.51-1.32-.59-1.93-.19-.6.4-.84,1.18-.56,1.85.28.67.99,1.05,1.71.91s1.23-.77,1.23-1.5c0-.4-.16-.79-.45-1.08h0ZM30.12,10.37v-1.34c0-.62-.51-1.13-1.13-1.13h-5.15c-.06-.24-.12-.47-.2-.71-.19-.59-.42-1.16-.71-1.7h11.46c.38,1.28,1.65,2.09,2.97,1.89,1.33-.19,2.31-1.33,2.31-2.67s-.98-2.48-2.31-2.67-2.59.61-2.97,1.89h-12.46c-.26-.33-.54-.65-.84-.94C19.37,1.28,17.1.22,14.67,0c-.42-.04-.8.28-.84.7v8.97c0,.36.26.68.62.76l8.56,2.29c.2.05.41.03.59-.08.18-.1.31-.27.36-.47,0-.03.01-.05.02-.08h0c.15-.87.19-1.76.11-2.65h4.49v.92c-1.28.38-2.09,1.65-1.9,2.98.19,1.33,1.33,2.31,2.67,2.31s2.48-.98,2.67-2.31c.19-1.33-.62-2.59-1.9-2.98h0ZM30.16,12.14h0c-.39-.39-1-.45-1.46-.14-.46.3-.64.89-.43,1.4.21.51.75.8,1.29.69.54-.11.93-.58.93-1.13,0-.3-.12-.6-.34-.81h0ZM37.79,3.9h0c-.39-.39-1-.45-1.46-.14-.46.3-.63.89-.42,1.4.21.51.75.8,1.29.69.54-.11.93-.58.93-1.13,0-.31-.12-.6-.34-.82h0ZM12.77,12.15l-5.82,3.64c.2.26.42.51.66.75,1.77,1.76,4.25,2.63,6.73,2.36,2.48-.27,4.71-1.65,6.06-3.75.17-.26.32-.54.46-.82l-8.09-2.17ZM6.12,14.49l5.76-3.6V2.6c-2.55.5-4.72,2.17-5.85,4.51-1.13,2.34-1.1,5.08.1,7.39h0ZM22.64,14.1h0s.03-.07.04-.11c.05-.2.02-.41-.08-.59-.1-.18-.27-.3-.47-.36l-8.7-2.33V1.64h0c-.04-.42-.41-.74-.84-.7-3.56.32-6.66,2.54-8.1,5.81-1.44,3.27-.99,7.06,1.18,9.89,2.16,2.84,5.7,4.27,9.23,3.75,3.53-.53,6.49-2.93,7.74-6.28h0ZM15.38,1.66v7.42l7.17,1.92c.27-3.66-1.74-7.11-5.05-8.67-.67-.31-1.38-.54-2.11-.67h0ZM33.61,24.47h0c-.87,1.54-2.08,2.86-3.55,3.85-2.26,1.59-4.77,2.8-7.42,3.58-.38.11-.61.47-.55.86.06.38.4.66.79.65,2.93-.1,5.79-.9,8.36-2.32,2.26-1.21,4.19-2.94,5.62-5.06l.97.47c.26.14.58.11.82-.06.24-.18.35-.47.3-.76l-.91-4.7c-.04-.25-.19-.47-.41-.58-.22-.12-.49-.12-.71,0l-4.29,2.23c-.26.13-.42.4-.42.7,0,.29.17.56.44.68l.97.47h0ZM34.7,23.28l.26.13h0c.36.17.53.59.39.96-.76,1.8-1.98,3.37-3.54,4.56,1.67-1.07,3.05-2.52,4.04-4.24.19-.38.65-.54,1.03-.36l.26.13-.43-2.22-2,1.05h0ZM37.24,27.47h0c-.43,0-.77.34-.77.77v14.13c0,.43.35.77.77.77h2.86c.43,0,.78-.35.78-.77v-14.13c0-.43-.35-.77-.78-.77h-2.86ZM39.33,29.01h-1.31v12.58s1.31,0,1.31,0v-12.59h0ZM32.65,30.6h0c-.43,0-.78.34-.78.77v11c0,.43.35.77.78.77h2.86c.2,0,.4-.08.54-.23.15-.15.23-.34.23-.55v-11c0-.2-.08-.4-.23-.55-.14-.14-.34-.23-.54-.23h-2.86ZM34.73,32.15h-1.32s0,9.45,0,9.45h1.31v-9.45h0ZM28.05,33.57c-.43,0-.77.35-.77.78v8.03c0,.43.35.77.77.77h2.86c.43,0,.77-.35.77-.77v-8.03c0-.43-.35-.78-.77-.78h-2.86ZM30.13,35.11h-1.31v6.48h1.31v-6.48s0,0,0,0ZM23.45,36.1h0c-.2,0-.4.08-.55.23-.14.14-.23.34-.23.55v5.5c0,.43.35.77.77.77h2.86c.43,0,.77-.35.77-.77v-5.5c0-.43-.35-.77-.77-.77h-2.86ZM25.54,37.65h-1.31v3.95h1.31v-3.95s0,0,0,0ZM46.74,39.21h0c1.75-4.68,1.25-9.9-1.34-14.17-2.6-4.27-7.01-7.1-11.97-7.7-4.96-.6-9.92,1.12-13.45,4.65-3.53,3.53-5.25,8.49-4.66,13.45.59,4.96,3.43,9.37,7.7,11.97,4.27,2.6,9.49,3.1,14.17,1.35l-.44-.44c-.14-.14-.23-.34-.23-.55s.08-.4.23-.55c.08-.08.17-.14.27-.18,3.51-1.71,6.34-4.55,8.04-8.07.11-.23.32-.39.57-.43.24-.04.5.04.67.22l.44.44h0ZM46.69,45.76c-.44.53-.92,1.06-1.42,1.55-.49.5-1.02.97-1.55,1.42l2.26,2.27,2.97-2.97-2.27-2.27h0ZM38.58,47.98l1.25,1.25c.24.24,1.34-.43,2.6-1.43h0c1.23-.99,2.35-2.1,3.34-3.33,1-1.27,1.68-2.36,1.43-2.6l-1.25-1.25h0c-1.71,3.1-4.27,5.66-7.37,7.37h0ZM46.58,54.85l6.24-6.23-1.11-1.1s-.02,0-.03,0c0,0-.02,0-.02,0l-6.18,6.18s0,.02,0,.03c0,0,0,.02,0,.02l1.11,1.1ZM53.91,49.72l-6.24,6.23,4.72,4.72c1.72,1.72,4.51,1.72,6.24,0,1.72-1.72,1.72-4.51,0-6.23l-4.72-4.72Z"/>
  </g>
</svg>