<?xml version="1.0" encoding="UTF-8"?>
<svg id="Layer_2" data-name="Layer 2" xmlns="http://www.w3.org/2000/svg" viewBox="0 0 71.38 87.79">
  <defs>
    <style>
      .cls-1 {
        fill: #164750;
        fill-rule: evenodd;
      }
    </style>
  </defs>
  <g id="Layer_1-2" data-name="Layer 1">
    <path class="cls-1" d="M36.05,12.36c.83,0,1.5.67,1.5,1.5s-.67,1.5-1.5,1.5-1.5-.67-1.5-1.5.67-1.5,1.5-1.5h0ZM36.05,18.01c2.29,0,4.16-1.87,4.16-4.16s-1.87-4.16-4.16-4.16-4.16,1.87-4.16,4.16,1.87,4.16,4.16,4.16h0ZM31.41,21.27c0-.73.6-1.33,1.33-1.33h4.04c.73,0,1.33.6,1.33,1.33v15.35c0,.73-.6,1.33-1.33,1.33s-1.33-.6-1.33-1.33v-14.02h-2.71c-.73,0-1.33-.59-1.33-1.33h0ZM20.69,11.07v13.85c0,7.25,7.96,12.02,15.37,16.59,7.42-4.57,15.37-9.37,15.37-16.59v-13.85c-5.57-.71-11.14-3.57-15.37-7.8-4.22,4.23-9.8,7.09-15.37,7.8h0ZM34.22,43.51c.38.23.75.47,1.13.7.43.27.97.27,1.4,0,8.16-5.06,17.33-10.27,17.33-19.29v-14.6c0-.95-.73-1.73-1.7-1.82-5.57-.53-11.37-3.62-15.33-8.05-.53-.59-1.45-.59-1.98,0-3.97,4.43-9.76,7.53-15.33,8.05-.97.09-1.7.87-1.7,1.82v14.6c0,8.58,8.23,13.67,16.2,18.59h0ZM68.2,55.21l-15.44,15.84c-.47.65-1.96.81-2.84.84l-19.15.82c-1.15.04-2.28.56-2.77.88l-1.34.89-3.33,1.83-7.99-10.86c3.74-3.21,7.92-6.13,13.55-6.16l17.22-.07c1.28,0,3.42,2.29,1.86,3.91-.49.51-1.11.75-1.39.75l-9.04.08c-.73,0-1.33.61-1.32,1.34,0,.73.6,1.32,1.34,1.32l9.04-.08c1.78-.02,3.77-1.5,4.37-3.35.86-.15,1.73-.52,2.59-1.12l13.73-9.37c.41-.06.96-.04,1.25.39.28.42.27,1.23-.35,2.11h0ZM21.39,79.55c.36-.26.44-.78.17-1.14l-10.05-13.67c-.26-.36-.79-.43-1.14-.17l-7.38,5.43c-.36.26-.44.78-.17,1.14l10.05,13.67c.26.36.78.44,1.14.17l7.38-5.43h0ZM18.96,47.83v11.65c1.81-1.07,3.79-1.93,5.99-2.41v-9.24h-5.99ZM33.06,51.15v5.47l5.99-.02v-5.45h-5.99ZM53.15,46.08h-5.99v10.63c1.73.47,3.27,2.02,3.81,3.76.68-.24,1.52-.88,2.18-1.32v-13.07h0ZM70.77,51.64c.97,1.48.78,3.53-.49,5.22-.03.05-.07.09-.11.13l-15.32,15.7c-.47.62-1.11,1.06-1.96,1.37-.79.28-1.91.45-2.87.49l-19.15.82c-.42.01-.95.18-1.43.46l-1.36.9-3.7,2.04c.03,1.11-.46,2.21-1.41,2.91l-7.38,5.43c-1.54,1.13-3.72.81-4.86-.74L.67,72.71c-1.13-1.54-.8-3.72.74-4.86l7.38-5.43c1.54-1.14,3.72-.8,4.86.74l.1.14c.82-.7,1.67-1.39,2.54-2.04v-14.77c0-.73.6-1.33,1.33-1.33h8.65c.74,0,1.33.6,1.33,1.33v10.19c.89-.07,1.88-.05,2.79-.05v-6.81c0-.73.6-1.33,1.33-1.33h8.65c.73,0,1.33.6,1.33,1.33v6.77h2.79v-11.84c0-.73.6-1.33,1.33-1.33h8.65c.73,0,1.33.6,1.33,1.33v12.58l10.21-6.97c.14-.09.29-.16.45-.2,1.81-.42,3.42.13,4.3,1.48Z"/>
  </g>
</svg>