<?xml version="1.0" encoding="UTF-8"?>
<svg id="Layer_2" data-name="Layer 2" xmlns="http://www.w3.org/2000/svg" viewBox="0 0 45.13 42.28">
  <defs>
    <style>
      .cls-1 {
        fill: none;
        stroke: #164750;
        stroke-miterlimit: 10;
        stroke-width: .75px;
      }
    </style>
  </defs>
  <g id="Layer_1-2" data-name="Layer 1">
    <path class="cls-1" d="M37.52,32.39c-.38-.37-1-.36-1.37.02l-.13.13-3.32-3.25c1.21-1.73,1.92-3.83,1.92-6.09,0-5.88-4.77-10.64-10.64-10.64s-10.64,4.77-10.64,10.64,4.77,10.64,10.64,10.64c2.64,0,5.06-.96,6.92-2.56l3.26,3.19-.11.12c-.37.38-.36,1,.02,1.37l5.85,5.67c.38.37,1,.36,1.37-.02l2.11-2.17c.37-.38.36-1-.02-1.37l-5.84-5.67ZM23.97,30.72c-4.16,0-7.53-3.37-7.53-7.53s3.37-7.53,7.53-7.53,7.53,3.37,7.53,7.53-3.37,7.53-7.53,7.53M27.55,20.11l-3.47-1.49c-.07-.03-.15-.03-.22,0l-3.47,1.49c-.1.04-.17.14-.17.25v3c0,2.18,1.58,4.05,3.7,4.44.04,0,.07,0,.1,0,2.12-.39,3.7-2.27,3.7-4.44v-3c0-.11-.06-.21-.17-.25M26.4,22.66l-2.24,2.03c-.29.29-.76.29-1.05,0l-.93-.93c-.29-.29-.29-.76,0-1.04.29-.29.76-.29,1.04,0l.44.44,1.75-1.58c.3-.27.77-.25,1.04.05.27.3.25.77-.05,1.04M14.53,12.35c-.77,1.27-1.17,2.56-1.33,4.03H.42c.43-3.97,3.79-7.07,7.87-7.07,2.53,0,4.79,1.19,6.24,3.04M32.83,4.38c0-2.21,1.79-4,4-4s4,1.79,4,4-1.79,4-4,4-4-1.79-4-4M18.56,4.38c0-2.21,1.79-4,4-4s4,1.79,4,4-1.79,4-4,4-4-1.79-4-4M4.29,4.38C4.29,2.17,6.08.38,8.29.38s4,1.79,4,4-1.79,4-4,4-4-1.79-4-4M14.93,15.13c.92-3.36,3.99-5.82,7.64-5.82,2.34,0,4.44,1.02,5.89,2.63-4.71-1.88-10.14-.6-13.53,3.19M31.17,13.45c-.17-.38-.36-.75-.57-1.1,1.45-1.85,3.71-3.04,6.24-3.04,4.09,0,7.45,3.09,7.87,7.07h-10.73c-.77-1.13-1.72-2.11-2.82-2.92"/>
  </g>
</svg>