<?xml version="1.0" encoding="UTF-8"?>
<svg id="Layer_2" data-name="Layer 2" xmlns="http://www.w3.org/2000/svg" viewBox="0 0 44.1 34.03">
  <defs>
    <style>
      .cls-1 {
        fill: #164750;
      }
    </style>
  </defs>
  <g id="Layer_1-2" data-name="Layer 1">
    <path class="cls-1" d="M9.35,21.69H.54c-.3,0-.54.24-.54.54v11.27c0,.3.24.54.54.54h8.81c.3,0,.54-.24.54-.54v-11.27c0-.3-.24-.54-.54-.54M8.81,32.96H1.08v-10.19h7.74v10.19ZM20.75,14.2h-8.81c-.3,0-.54.24-.54.54v18.76c0,.3.24.54.54.54h8.81c.3,0,.54-.24.54-.54V14.74c0-.3-.24-.54-.54-.54M20.22,32.96h-7.74V15.27h7.74v17.69ZM32.16,17.74h-8.81c-.3,0-.54.24-.54.54v15.22c0,.3.24.54.54.54h8.81c.3,0,.54-.24.54-.54v-15.22c0-.3-.24-.54-.54-.54M31.62,32.96h-7.74v-14.14h7.74v14.14ZM43.56,9.63h-8.81c-.3,0-.54.24-.54.54v23.33c0,.3.24.54.54.54h8.81c.3,0,.54-.24.54-.54V10.16c0-.3-.24-.54-.54-.54h0ZM43.02,32.96h-7.74V10.7s7.73,0,7.73,0v22.26h0ZM2.94,14.62c1.25,0,2.26-1.02,2.26-2.26,0-.22-.03-.43-.09-.63l9.9-5.72c.41.43.99.7,1.63.7s1.22-.27,1.63-.7l6.65,3.84c-.06.2-.09.41-.09.63,0,1.25,1.02,2.26,2.26,2.26s2.26-1.02,2.26-2.26c0-.22-.03-.43-.09-.63l10.44-6.03c.41.43.99.7,1.63.7,1.25,0,2.26-1.02,2.26-2.26s-1.02-2.26-2.26-2.26-2.26,1.02-2.26,2.26c0,.22.03.43.09.63l-10.44,6.03c-.41-.43-.99-.7-1.63-.7s-1.22.27-1.63.7l-6.65-3.84c.06-.2.09-.41.09-.63,0-1.25-1.02-2.26-2.26-2.26s-2.26,1.02-2.26,2.26c0,.22.03.43.09.63l-9.9,5.71c-.41-.43-.99-.7-1.63-.7-1.25,0-2.26,1.02-2.26,2.26s1.02,2.26,2.26,2.26h0ZM41.33,1.08c.65,0,1.19.53,1.19,1.19s-.53,1.19-1.19,1.19-1.19-.53-1.19-1.19.53-1.19,1.19-1.19M27.09,9.3c.65,0,1.19.53,1.19,1.19s-.53,1.19-1.19,1.19-1.19-.53-1.19-1.19.53-1.19,1.19-1.19M16.64,3.27c.65,0,1.19.53,1.19,1.19s-.53,1.19-1.19,1.19-1.19-.53-1.19-1.19.53-1.19,1.19-1.19M2.94,11.18c.65,0,1.19.53,1.19,1.19s-.53,1.19-1.19,1.19-1.19-.53-1.19-1.19.53-1.19,1.19-1.19"/>
  </g>
</svg>