<svg xmlns="http://www.w3.org/2000/svg" viewBox="0 0 24.26 24.25"><defs><style>.cls-1{fill:#fff;}.cls-2{fill:none;stroke:#164650;stroke-miterlimit:10;stroke-width:0.5px;}</style></defs><g id="Layer_2" data-name="Layer 2"><g id="Layer_1-2" data-name="Layer 1"><path class="cls-1" d="M24,12.13A11.88,11.88,0,1,1,12.13.25,11.87,11.87,0,0,1,24,12.13"/><path class="cls-2" d="M24,12.13A11.88,11.88,0,1,1,12.13.25,11.87,11.87,0,0,1,24,12.13Z"/><path class="cls-1" d="M13.44,19.69V13.07h2.21l.42-2.74H13.44V8.56A1.37,1.37,0,0,1,15,7.08h1.19V4.75a14.12,14.12,0,0,0-2.12-.19,3.35,3.35,0,0,0-3.58,3.69v2.08H8.08v2.74h2.4v6.62Z"/><path class="cls-2" d="M13.44,19.69V13.07h2.21l.42-2.74H13.44V8.56A1.37,1.37,0,0,1,15,7.08h1.19V4.75a14.12,14.12,0,0,0-2.12-.19,3.35,3.35,0,0,0-3.58,3.69v2.08H8.08v2.74h2.4v6.62Z"/></g></g></svg>