<svg xmlns="http://www.w3.org/2000/svg" viewBox="0 0 24.26 24.25"><defs><style>.cls-1{fill:#fff;}.cls-2{fill:none;stroke:#164650;stroke-miterlimit:10;stroke-width:0.5px;}</style></defs><g id="Layer_2" data-name="Layer 2"><g id="Layer_1-2" data-name="Layer 1"><path class="cls-1" d="M24,12.13A11.88,11.88,0,1,1,12.13.25,11.87,11.87,0,0,1,24,12.13"/><path class="cls-2" d="M24,12.13A11.88,11.88,0,1,1,12.13.25,11.87,11.87,0,0,1,24,12.13Z"/><path class="cls-1" d="M12.18,9.08a3,3,0,1,0,3,3.05,3.06,3.06,0,0,0-3-3.05m0,5a2,2,0,1,1,2-1.95,2,2,0,0,1-2,1.95"/><path class="cls-2" d="M12.18,9.08a3,3,0,1,0,3,3.05A3.06,3.06,0,0,0,12.18,9.08Zm0,5a2,2,0,1,1,2-1.95A2,2,0,0,1,12.18,14.08Z"/><path class="cls-1" d="M14.59,18.31H9.66A3.72,3.72,0,0,1,6,14.6V9.66A3.71,3.71,0,0,1,9.66,6h4.93a3.72,3.72,0,0,1,3.72,3.71V14.6a3.72,3.72,0,0,1-3.72,3.71M9.66,7.11A2.55,2.55,0,0,0,7.11,9.66V14.6a2.55,2.55,0,0,0,2.55,2.54h4.93a2.55,2.55,0,0,0,2.56-2.54V9.66a2.56,2.56,0,0,0-2.56-2.55Z"/><path class="cls-2" d="M14.59,18.31H9.66A3.72,3.72,0,0,1,6,14.6V9.66A3.71,3.71,0,0,1,9.66,6h4.93a3.72,3.72,0,0,1,3.72,3.71V14.6A3.72,3.72,0,0,1,14.59,18.31ZM9.66,7.11A2.55,2.55,0,0,0,7.11,9.66V14.6a2.55,2.55,0,0,0,2.55,2.54h4.93a2.55,2.55,0,0,0,2.56-2.54V9.66a2.56,2.56,0,0,0-2.56-2.55Z"/></g></g></svg>