<svg xmlns="http://www.w3.org/2000/svg" viewBox="0 0 24.26 24.25"><defs><style>.cls-1{fill:#fff;}.cls-2{fill:none;stroke:#164650;stroke-miterlimit:10;stroke-width:0.5px;}</style></defs><g id="Layer_2" data-name="Layer 2"><g id="Layer_1-2" data-name="Layer 1"><path class="cls-1" d="M24,12.13A11.88,11.88,0,1,1,12.13.25,11.87,11.87,0,0,1,24,12.13"/><path class="cls-2" d="M24,12.13A11.88,11.88,0,1,1,12.13.25,11.87,11.87,0,0,1,24,12.13Z"/><path class="cls-1" d="M17.26,10.85h0l-.32,0a3.58,3.58,0,0,1-3-1.61v5.49a4.06,4.06,0,1,1-4.06-4.06h.25v2l-.25,0a2.07,2.07,0,0,0,0,4.14,2.12,2.12,0,0,0,2.16-2l0-9.33H14a3.57,3.57,0,0,0,3.29,3.18Z"/><path class="cls-2" d="M17.26,10.85h0l-.32,0a3.58,3.58,0,0,1-3-1.61v5.49a4.06,4.06,0,1,1-4.06-4.06h.25v2l-.25,0a2.07,2.07,0,0,0,0,4.14,2.12,2.12,0,0,0,2.16-2l0-9.33H14a3.57,3.57,0,0,0,3.29,3.18Z"/></g></g></svg>