<svg xmlns="http://www.w3.org/2000/svg" viewBox="0 0 24.26 24.25"><defs><style>.cls-1{fill:#fff;}.cls-2{fill:none;stroke:#164650;stroke-miterlimit:10;stroke-width:0.5px;}</style></defs><g id="Layer_2" data-name="Layer 2"><g id="Layer_1-2" data-name="Layer 1"><path class="cls-1" d="M24,12.13A11.88,11.88,0,1,1,12.13.25,11.87,11.87,0,0,1,24,12.13"/><path class="cls-2" d="M24,12.13A11.88,11.88,0,1,1,12.13.25,11.87,11.87,0,0,1,24,12.13Z"/><path class="cls-1" d="M13.13,11.29l3.94-4.58h-.93l-3.42,4L10,6.71H6.84l4.13,6-4.13,4.8h.93l3.61-4.2,2.89,4.2h3.15l-4.29-6.24Zm-1.27,1.49-.42-.6L8.11,7.42H9.54l2.69,3.84.42.6,3.49,5H14.71Z"/><path class="cls-2" d="M13.13,11.29l3.94-4.58h-.93l-3.42,4L10,6.71H6.84l4.13,6-4.13,4.8h.93l3.61-4.2,2.89,4.2h3.15l-4.29-6.24Zm-1.27,1.49-.42-.6L8.11,7.42H9.54l2.69,3.84.42.6,3.49,5H14.71Z"/></g></g></svg>